# xmcd
#
# Track frame offsets:
#	150
#	17310
#	32250
#	47760
#	59443
#	72845
#	82565
#	96960
#	113060
#	131458
#	147095
#	163250
#	177573
#
# Disc length: 2570 seconds
#
# Revision: 0
# Processed by: cddbd v1.5.2PL0 Copyright (c) Steve Scherf et al.
# Submitted via: EasyCDDAExtractor 2010.4.0.0
#
DISCID=9f0a080d
DTITLE=Bjøro Håland - Rett Fra Hjertet
DYEAR=1989
DGENRE=
TTITLE0=Over djupa vatn
TTITLE1=Et lite hus på landet
TTITLE2=Noe ingen av oss vet
TTITLE3=Er du bare min
TTITLE4=Minnenes melodi
TTITLE5=Våren
TTITLE6=Den gamle gyngestolen
TTITLE7=Inn i din verden
TTITLE8=Roser
TTITLE9=En vanlig arbeider
TTITLE10=Sørlandsnetter
TTITLE11=Naturen og mennesket
TTITLE12=Sommergjest
EXTD=
EXTT0=
EXTT1=
EXTT2=
EXTT3=
EXTT4=
EXTT5=
EXTT6=
EXTT7=
EXTT8=
EXTT9=
EXTT10=
EXTT11=
EXTT12=
PLAYORDER=
